<svg t="1564622307134" class="icon" viewBox="0 0 1024 1024" version="1.1" xmlns="http://www.w3.org/2000/svg" p-id="1482" width="200" height="200"><path d="M514.048 952.32c-6.144 0-12.288-2.048-16.384-8.192-10.24-14.336-258.048-346.112-268.288-360.448-36.864-57.344-55.296-116.736-55.296-178.176 2.048-90.112 36.864-174.08 100.352-237.568 63.488-63.488 147.456-96.256 235.52-96.256 186.368 0 337.92 149.504 337.92 333.824 0 61.44-16.384 118.784-47.104 174.08 0 0 0 2.048-2.048 2.048-6.144 8.192-266.24 358.4-268.288 362.496-2.048 6.144-8.192 8.192-16.384 8.192 2.048 0 2.048 0 0 0z m-299.008-546.816c0 51.2 16.384 106.496 47.104 155.648 8.192 10.24 194.56 260.096 251.904 337.92 57.344-75.776 237.568-319.488 251.904-339.968 28.672-49.152 40.96-98.304 40.96-153.6 0-161.792-133.12-292.864-296.96-292.864-77.824-2.048-149.504 28.672-206.848 83.968-55.296 57.344-86.016 131.072-88.064 208.896z m296.96 141.312c-79.872 0-147.456-67.584-147.456-149.504s65.536-147.456 147.456-147.456c38.912 0 79.872 16.384 106.496 45.056 26.624 28.672 40.96 65.536 40.96 102.4 0 86.016-61.44 149.504-147.456 149.504z m0-256c-59.392 0-106.496 47.104-106.496 106.496 0 59.392 49.152 108.544 106.496 108.544 61.44 0 106.496-47.104 106.496-108.544 0-26.624-10.24-53.248-28.672-73.728-20.48-20.48-47.104-32.768-77.824-32.768z" p-id="1483" fill="#8a8a8a"></path></svg>